<svg version="1" xmlns="http://www.w3.org/2000/svg" width="682.667" height="682.667" viewBox="0 0 512.000000 512.000000"><path d="M0 256v256h512V0H0v256zm202.7-114.5c1.2 3.3 5.2 14.3 8.8 24.5 3.7 10.2 9.5 26.4 13 36 10 27.5 22.9 63.3 27.9 77.2 2.5 7.1 6.6 18.3 9 25 15.8 43.7 21.4 59.6 22 61.5.9 2.7 2.1 3 3.1.5.4-.9 8.6-23.8 18.2-50.7 9.6-27 19.2-53.7 21.3-59.5 2.1-5.8 12.4-34.8 23-64.5 10.6-29.7 19.7-54.6 20.3-55.3 1.2-1.5 17.7-1.7 17.7-.2 0 .5-4.8 14.4-10.6 30.7-5.9 16.4-12.8 35.9-15.4 43.3-2.7 7.4-6.7 18.7-9 25-2.3 6.3-4.8 13.4-5.6 15.8-.8 2.3-5.6 15.6-10.5 29.5-5 13.8-10.6 29.5-12.4 34.7-1.9 5.2-5.6 15.8-8.4 23.5-2.7 7.7-7.2 20.3-9.9 28-2.8 7.7-6.6 18.3-8.5 23.5l-3.4 9.5-33.7.3-33.7.2-1.3-3.2c-2.6-6.3-91.9-257.3-92.4-259.6l-.4-2.2 34.3.2 34.3.3 2.3 6z"/><path d="M156 153.4c0 .3 5 14.3 11.1 31.3 6.1 16.9 14.3 40 18.4 51.3 6.3 17.8 28.8 80.5 40.7 113.5 2.2 6 4.8 13.5 5.9 16.5 1 3 2.7 7.7 3.8 10.5l1.9 5 16.1.3c9.7.1 16.1-.1 16.1-.7 0-.5-7.5-21.8-16.6-47.3-9.1-25.5-17-47.4-17.4-48.8-.5-1.4-2.7-7.7-5-14s-4.6-12.6-5-14c-.4-1.4-2.7-7.7-5-14s-10-27.9-17.2-48c-7.1-20.1-13.5-37.7-14-39.3l-1-2.7h-16.4c-9 0-16.4.2-16.4.4z"/></svg>